<?xml version="1.0" encoding="UTF-8"?>
<svg xmlns="http://www.w3.org/2000/svg" xmlns:xlink="http://www.w3.org/1999/xlink" version="1.1">
<g id="surface1">
<path style=" stroke:none;fill-rule:evenodd;fill:rgb(90.588235%,22.352941%,0%);fill-opacity:1;" d="M 47.296875 61.078125 C 37.945312 77.515625 32.546875 74.40625 16.011719 93.164062 C 21.667969 82.160156 31.121094 71.191406 33.019531 67.046875 C 34.617188 63.902344 37.097656 60.652344 40.136719 57.8125 C 42.472656 55.492188 44.054688 51.429688 46.5625 49.589844 C 44.933594 54.820312 50.25 55.675781 47.296875 61.078125 Z M 47.296875 61.078125 "/>
<path style=" stroke:none;fill-rule:evenodd;fill:rgb(90.588235%,22.352941%,0%);fill-opacity:1;" d="M 45.734375 51.972656 C 43.25 54.425781 43.429688 56.75 42.007812 59.1875 C 41.375 61.5 39.347656 64.058594 37.113281 66.335938 C 33.578125 70.019531 10.738281 90.222656 3 94.039062 C 12.617188 85.90625 22.554688 72.191406 25.304688 67.117188 C 27.558594 63.289062 30.757812 59.488281 34.480469 56.324219 C 37.359375 53.710938 39.960938 53.015625 42.9375 51.066406 C 44.933594 50.097656 45.777344 50.660156 45.734375 51.972656 Z M 45.734375 51.972656 "/>
<path style=" stroke:none;fill-rule:evenodd;fill:rgb(90.588235%,22.352941%,0%);fill-opacity:1;" d="M 46.226562 50.046875 C 43.785156 51.894531 40.984375 55.894531 39.183594 58.074219 C 37.902344 60.375 35.695312 62.488281 33.472656 64.230469 C 29.921875 67.070312 14.808594 82.109375 1.945312 83.390625 C 16.941406 77.363281 22.492188 65.8125 26.117188 61.203125 C 28.957031 57.785156 32.355469 54.664062 35.804688 52.492188 C 40.566406 49.488281 45.066406 49.714844 46.226562 50.046875 Z M 46.226562 50.046875 "/>
<path style=" stroke:none;fill-rule:evenodd;fill:rgb(90.588235%,54.901961%,0%);fill-opacity:1;" d="M 45.925781 52.265625 C 43.898438 54.265625 43.972656 56.09375 42.78125 58.050781 C 42.210938 59.886719 40.542969 61.960938 38.71875 63.820312 C 35.828125 66.820312 19.011719 81.164062 11.300781 86.871094 C 27.175781 72.328125 27.09375 68.859375 29.410156 64.789062 C 31.292969 61.710938 33.925781 58.625 36.945312 56.023438 C 39.289062 53.882812 41.78125 52.289062 44.179688 50.664062 C 45.777344 49.84375 46 51.230469 45.925781 52.265625 Z M 45.925781 52.265625 "/>
<path style=" stroke:none;fill-rule:evenodd;fill:rgb(90.588235%,54.901961%,0%);fill-opacity:1;" d="M 46.671875 58.796875 C 41.445312 71.289062 36.890625 67.957031 25.753906 81.136719 C 30.285156 74.203125 33.597656 68.902344 37.226562 64.394531 C 38.019531 62.3125 44.5625 51.304688 46.285156 49.84375 C 45.789062 53.144531 48.175781 55.199219 46.671875 58.796875 Z M 46.671875 58.796875 "/>
<path style=" stroke:none;fill-rule:evenodd;fill:rgb(90.588235%,88.235294%,0%);fill-opacity:1;" d="M 45.417969 58.605469 C 42.691406 65.679688 38.207031 66.9375 32.117188 73.082031 C 36.863281 67.125 36.292969 63.90625 39.527344 60.710938 C 40.175781 59.433594 45.390625 50.925781 46.40625 50.179688 C 45.746094 52.300781 46.453125 55.925781 45.417969 58.605469 Z M 45.417969 58.605469 "/>
<path style=" stroke:none;fill-rule:evenodd;fill:rgb(90.588235%,54.901961%,0%);fill-opacity:1;" d="M 41.285156 55.78125 C 40.324219 57.507812 38.664062 59.097656 36.996094 60.402344 C 34.335938 62.535156 19.847656 74.691406 15.261719 75.898438 C 21.953125 71.636719 28.761719 61.589844 31.480469 58.128906 C 33.609375 55.566406 36.320312 52.726562 38.75 51.59375 C 42.414062 49.882812 45.21875 49.558594 46.289062 49.878906 C 47.464844 49.578125 42.632812 54.148438 41.285156 55.78125 Z M 41.285156 55.78125 "/>
<path style=" stroke:none;fill-rule:evenodd;fill:rgb(90.588235%,88.235294%,0%);fill-opacity:1;" d="M 46.117188 52.160156 C 44.855469 53.363281 44.835938 54.53125 44.066406 55.734375 C 43.667969 56.882812 42.613281 58.144531 41.476562 59.265625 C 39.671875 61.078125 28.449219 72.382812 24.695312 74.226562 C 29.515625 70.242188 34.46875 62.066406 35.972656 59.554688 C 37.1875 57.660156 38.84375 55.789062 40.707031 54.238281 C 42.160156 52.960938 43.679688 52.03125 45.144531 51.082031 C 46.117188 50.613281 46.195312 51.503906 46.117188 52.160156 Z M 46.117188 52.160156 "/>
<path style=" stroke:none;fill-rule:evenodd;fill:rgb(90.588235%,88.235294%,0%);fill-opacity:1;" d="M 45.816406 51.546875 C 44.714844 52.160156 44.003906 53.480469 43.050781 54.394531 C 42.234375 55.472656 41.160156 56.277344 40.144531 56.871094 C 38.515625 57.847656 28.257812 66.980469 26.027344 66.808594 C 29.867188 65.175781 35.261719 55.917969 37.226562 53.949219 C 38.734375 52.519531 41.464844 51.28125 42.953125 50.640625 C 44.160156 50.054688 45.636719 49.808594 46.644531 49.613281 C 46.503906 50.378906 46.238281 50.84375 45.816406 51.546875 Z M 45.816406 51.546875 "/>
<path style=" stroke:none;fill-rule:evenodd;fill:rgb(100%,100%,61.960784%);fill-opacity:1;" d="M 45.253906 52.945312 C 43.148438 56.582031 39.671875 59.503906 35.859375 62.675781 C 38.078125 60.15625 40.332031 56.65625 40.925781 55.363281 C 41.421875 54.382812 42.199219 53.367188 43.148438 52.480469 C 43.875 51.757812 44.910156 51.027344 45.691406 50.453125 C 45.183594 52.085938 46.171875 51.257812 45.253906 52.945312 Z M 45.253906 52.945312 "/>
<path style=" stroke:none;fill-rule:evenodd;fill:rgb(100%,100%,61.960784%);fill-opacity:1;" d="M 42.972656 53.507812 C 39.292969 56.011719 37.449219 59.035156 33.667969 60.105469 C 36.320312 58.261719 38.941406 53.777344 40.269531 52.644531 C 42.507812 50.738281 45.21875 50.371094 45.671875 50.507812 C 43.902344 52.140625 44.691406 52.285156 42.972656 53.507812 Z M 42.972656 53.507812 "/>
<path style="fill-rule:evenodd;fill:rgb(92.54902%,92.54902%,92.54902%);fill-opacity:1;stroke-width:3;stroke-linecap:butt;stroke-linejoin:miter;stroke:rgb(0%,0%,0%);stroke-opacity:1;stroke-miterlimit:4;" d="M 481.670087 67.252102 C 473.64394 74.192244 411.96844 132.373104 458.683035 243.805703 L 505.22834 243.807708 L 505.401208 243.805888 C 552.116362 132.380379 490.440211 74.201589 482.414853 67.25756 Z M 481.670087 67.252102 " transform="matrix(0.29064,0.296825,-0.295959,0.291491,-23.502893,-159.883811)"/>
<path style=" stroke:none;fill-rule:nonzero;fill:rgb(80%,80%,80%);fill-opacity:1;" d="M 75.796875 24.292969 C 72.972656 21.40625 68.128906 21.570312 65.003906 24.648438 C 61.875 27.726562 61.628906 32.578125 64.457031 35.464844 C 67.28125 38.347656 72.121094 38.191406 75.25 35.113281 C 78.375 32.03125 78.621094 27.175781 75.796875 24.292969 Z M 75.128906 24.953125 C 77.625 27.503906 77.40625 31.773438 74.644531 34.492188 C 71.878906 37.214844 67.621094 37.351562 65.125 34.804688 C 62.628906 32.253906 62.84375 27.988281 65.609375 25.265625 C 68.375 22.546875 72.628906 22.402344 75.128906 24.953125 Z M 75.128906 24.953125 "/>
<path style="fill-rule:evenodd;fill:rgb(100%,0%,0%);fill-opacity:1;stroke-width:3;stroke-linecap:butt;stroke-linejoin:miter;stroke:rgb(0%,0%,0%);stroke-opacity:1;stroke-miterlimit:4;" d="M 450.566688 112.995685 L 461.884774 90.387901 L 477.681827 70.924722 L 482.148497 67.207168 L 498.99743 86.379826 L 512.159878 109.561052 L 513.214212 114.424037 L 450.302735 114.135529 " transform="matrix(0.29064,0.296825,-0.295959,0.291491,-23.502893,-159.883811)"/>
<path style="fill-rule:evenodd;fill:rgb(100%,0%,0%);fill-opacity:1;stroke-width:3;stroke-linecap:butt;stroke-linejoin:miter;stroke:rgb(0%,0%,0%);stroke-opacity:1;stroke-miterlimit:4;" d="M 444.246742 199.140045 C 444.246742 199.140045 416.343242 198.755581 433.187027 275.825519 C 433.187027 275.825519 434.765529 211.474955 449.514261 219.412117 " transform="matrix(0.29064,0.296825,-0.295959,0.291491,-23.502893,-159.883811)"/>
<path style="fill-rule:evenodd;fill:rgb(100%,0%,0%);fill-opacity:1;stroke-width:3;stroke-linecap:butt;stroke-linejoin:miter;stroke:rgb(0%,0%,0%);stroke-opacity:1;stroke-miterlimit:4;" d="M 519.922692 199.134573 C 519.922692 199.134573 547.827026 198.754335 530.978688 275.826581 C 530.978688 275.826581 529.398759 211.476024 514.657711 219.411145 " transform="matrix(0.29064,0.296825,-0.295959,0.291491,-23.502893,-159.883811)"/>
<path style="fill-rule:evenodd;fill:rgb(70.196078%,70.196078%,70.196078%);fill-opacity:1;stroke-width:3;stroke-linecap:butt;stroke-linejoin:miter;stroke:rgb(0%,0%,0%);stroke-opacity:1;stroke-miterlimit:4;" d="M 451.880486 228.031558 L 458.722725 243.778687 L 505.578349 243.491497 L 511.112702 228.032978 Z M 451.880486 228.031558 " transform="matrix(0.29064,0.296825,-0.295959,0.291491,-23.502893,-159.883811)"/>
<path style=" stroke:none;fill-rule:evenodd;fill:rgb(82.352941%,0%,0%);fill-opacity:1;" d="M 68.261719 56.65625 L 62.496094 59.265625 L 62.425781 57.492188 L 60.847656 56.898438 L 68.652344 52.128906 L 69.8125 56.203125 C 69.8125 56.203125 70.855469 64.234375 50.058594 77.65625 C 69.996094 62.164062 68.183594 56.578125 68.261719 56.65625 Z M 68.261719 56.65625 "/>
<path style=" stroke:none;fill-rule:evenodd;fill:rgb(82.352941%,0%,0%);fill-opacity:1;" d="M 20.789062 48.613281 C 20.789062 48.613281 38.503906 29.640625 43.777344 34.878906 C 44.359375 35.457031 42.277344 37.425781 42.277344 37.425781 L 39.707031 35.816406 L 32.507812 39.683594 Z M 20.789062 48.613281 "/>
<path style=" stroke:none;fill-rule:evenodd;fill:rgb(60%,60%,60%);fill-opacity:1;" d="M 52.566406 53.203125 C 51.851562 54.523438 50.601562 56.117188 48.476562 58.03125 C 48.519531 58.121094 48.550781 58.230469 48.582031 58.34375 L 51.375 61.160156 L 56.355469 58.851562 C 56.617188 58.488281 56.839844 58.152344 57.074219 57.804688 Z M 52.566406 53.203125 "/>
<path style=" stroke:none;fill-rule:evenodd;fill:rgb(80%,80%,80%);fill-opacity:1;" d="M 60.144531 42.382812 C 59.671875 41.8125 59.253906 41.566406 59.253906 41.566406 L 52.351562 47.597656 C 52.351562 47.597656 54.597656 49.085938 52.6875 52.707031 L 57.207031 57.320312 C 63.308594 48.363281 61.507812 44.015625 60.144531 42.382812 Z M 60.144531 42.382812 "/>
<path style=" stroke:none;fill-rule:evenodd;fill:rgb(80%,80%,80%);fill-opacity:1;" d="M 40.179688 41.308594 L 37.5 46.984375 L 39.453125 49.316406 L 43.628906 43.992188 Z M 40.179688 41.308594 "/>
<path style="fill:none;stroke-width:3;stroke-linecap:butt;stroke-linejoin:miter;stroke:rgb(0%,0%,0%);stroke-opacity:1;stroke-miterlimit:4;" d="M 450.564438 113.574215 L 512.42308 113.567931 " transform="matrix(0.29064,0.296825,-0.295959,0.291491,-23.502893,-159.883811)"/>
<path style="fill-rule:nonzero;fill:rgb(70.196078%,70.196078%,70.196078%);fill-opacity:1;stroke-width:3;stroke-linecap:round;stroke-linejoin:miter;stroke:rgb(0%,0%,0%);stroke-opacity:1;stroke-miterlimit:4;" d="M 498.629145 156.85514 C 498.625114 166.816138 491.199358 174.887024 482.043209 174.883683 C 472.880462 174.887061 465.458196 166.806267 465.455628 156.851987 C 465.45306 146.897708 472.878817 138.826822 482.041564 138.823444 C 491.197712 138.826785 498.626577 146.90086 498.629145 156.85514 Z M 498.629145 156.85514 " transform="matrix(0.29064,0.296825,-0.295959,0.291491,-23.502893,-159.883811)"/>
<path style="fill-rule:nonzero;fill:rgb(50.196078%,89.803922%,100%);fill-opacity:1;stroke-width:3;stroke-linecap:round;stroke-linejoin:miter;stroke:rgb(0%,0%,0%);stroke-opacity:1;stroke-miterlimit:4;" d="M 492.837589 156.856271 C 492.840354 163.339508 488.006385 168.596964 482.048559 168.593196 C 476.077436 168.589569 471.249948 163.334092 471.247183 156.850856 C 471.251117 150.374198 476.085087 145.116742 482.042913 145.120509 C 488.007337 145.117558 492.834824 150.373035 492.837589 156.856271 Z M 492.837589 156.856271 " transform="matrix(0.29064,0.296825,-0.295959,0.291491,-23.502893,-159.883811)"/>
<path style="fill:none;stroke-width:3;stroke-linecap:butt;stroke-linejoin:miter;stroke:rgb(0%,0%,0%);stroke-opacity:1;stroke-miterlimit:4;" d="M 453.675559 227.999359 L 512.116518 228.002461 " transform="matrix(0.29064,0.296825,-0.295959,0.291491,-23.502893,-159.883811)"/>
<path style="fill-rule:nonzero;fill:rgb(100%,0%,0%);fill-opacity:1;stroke-width:3;stroke-linecap:round;stroke-linejoin:miter;stroke:rgb(0%,0%,0%);stroke-opacity:1;stroke-miterlimit:4;" d="M 479.676601 198.560883 L 484.410948 198.564233 L 484.413488 275.831434 L 479.679141 275.828084 Z M 479.676601 198.560883 " transform="matrix(0.29064,0.296825,-0.295959,0.291491,-23.502893,-159.883811)"/>
<path style=" stroke:none;fill-rule:evenodd;fill:rgb(80%,80%,80%);fill-opacity:1;" d="M 57.605469 57.226562 C 57.605469 57.226562 79.308594 48.128906 89.40625 28.363281 C 63.039062 54.792969 52.480469 51.992188 52.480469 51.992188 Z M 57.605469 57.226562 "/>
<path style=" stroke:none;fill-rule:nonzero;fill:rgb(100%,100%,100%);fill-opacity:1;" d="M 75.074219 26.753906 L 74.859375 30.652344 L 65.410156 31.007812 L 65.625 27.109375 Z M 75.074219 26.753906 "/>
<path style="fill:none;stroke-width:3;stroke-linecap:round;stroke-linejoin:miter;stroke:rgb(0%,0%,0%);stroke-opacity:1;stroke-miterlimit:4;" d="M 492.837589 156.856271 C 492.840354 163.339508 488.006385 168.596964 482.048559 168.593196 C 476.077436 168.589569 471.249948 163.334092 471.247183 156.850856 C 471.251117 150.374198 476.085087 145.116742 482.042913 145.120509 C 488.007337 145.117558 492.834824 150.373035 492.837589 156.856271 Z M 492.837589 156.856271 " transform="matrix(0.29064,0.296825,-0.295959,0.291491,-23.502893,-159.883811)"/>
<path style=" stroke:none;fill-rule:evenodd;fill:rgb(82.352941%,0%,0%);fill-opacity:1;" d="M 91.25 22.195312 C 91.25 22.195312 95.742188 13.015625 94.867188 4.820312 C 90.191406 17.714844 86.355469 17.195312 86.355469 17.195312 Z M 91.25 22.195312 "/>
<path style="fill:none;stroke-width:3;stroke-linecap:butt;stroke-linejoin:miter;stroke:rgb(0%,0%,0%);stroke-opacity:1;stroke-miterlimit:4;" d="M 519.922692 199.134573 C 519.922692 199.134573 547.827026 198.754335 530.978688 275.826581 C 530.978688 275.826581 529.398759 211.476024 514.657711 219.411145 " transform="matrix(0.29064,0.296825,-0.295959,0.291491,-23.502893,-159.883811)"/>
<path style="fill:none;stroke-width:3;stroke-linecap:butt;stroke-linejoin:miter;stroke:rgb(0%,0%,0%);stroke-opacity:1;stroke-miterlimit:4;" d="M 444.246742 199.140045 C 444.246742 199.140045 416.343242 198.755581 433.187027 275.825519 C 433.187027 275.825519 434.765529 211.474955 449.514261 219.412117 " transform="matrix(0.29064,0.296825,-0.295959,0.291491,-23.502893,-159.883811)"/>
<path style=" stroke:none;fill-rule:evenodd;fill:rgb(100%,100%,100%);fill-opacity:1;" d="M 76.433594 6.550781 C 76.433594 6.550781 89.210938 2.101562 94.867188 3.285156 C 100.519531 4.472656 76.339844 6.796875 76.433594 6.550781 Z M 76.433594 6.550781 "/>
<path style=" stroke:none;fill-rule:evenodd;fill:rgb(100%,100%,100%);fill-opacity:1;" d="M 50.863281 26.945312 C 50.769531 26.554688 61.378906 13.132812 72.574219 9.46875 C 76.851562 9.792969 78.871094 13.980469 77.886719 14.652344 C 69.382812 20.492188 51.414062 29.261719 50.863281 26.945312 Z M 50.863281 26.945312 "/>
<path style="fill:none;stroke-width:3;stroke-linecap:butt;stroke-linejoin:miter;stroke:rgb(0%,0%,0%);stroke-opacity:1;stroke-miterlimit:4;" d="M 481.670087 67.252102 C 473.64394 74.192244 411.96844 132.373104 458.683035 243.805703 L 505.22834 243.807708 L 505.401208 243.805888 C 552.116362 132.380379 490.440211 74.201589 482.414853 67.25756 Z M 481.670087 67.252102 " transform="matrix(0.29064,0.296825,-0.295959,0.291491,-23.502893,-159.883811)"/>
</g>
</svg>
